<?xml version="1.0" encoding="UTF-8" standalone="no"?>
<svg
   xmlns:dc="http://purl.org/dc/elements/1.1/"
   xmlns:cc="http://creativecommons.org/ns#"
   xmlns:rdf="http://www.w3.org/1999/02/22-rdf-syntax-ns#"
   xmlns:svg="http://www.w3.org/2000/svg"
   xmlns="http://www.w3.org/2000/svg"
   xmlns:sodipodi="http://sodipodi.sourceforge.net/DTD/sodipodi-0.dtd"
   xmlns:inkscape="http://www.inkscape.org/namespaces/inkscape"
   id="fa973782-3a18-4630-a762-87130b613ac3"
   data-name="Layer 1"
   width="1600"
   height="800"
   viewBox="0 0 1600 800.00001"
   version="1.1"
   sodipodi:docname="img_3_1.svg"
   inkscape:version="0.92.1 r15371">
  <metadata
     id="metadata117">
    <rdf:RDF>
      <cc:Work
         rdf:about="">
        <dc:format>image/svg+xml</dc:format>
        <dc:type
           rdf:resource="http://purl.org/dc/dcmitype/StillImage" />
        <dc:title>all the data</dc:title>
      </cc:Work>
    </rdf:RDF>
  </metadata>
  <defs
     id="defs115" />
  <sodipodi:namedview
     pagecolor="#ffffff"
     bordercolor="#666666"
     borderopacity="1"
     objecttolerance="10"
     gridtolerance="10"
     guidetolerance="10"
     inkscape:pageopacity="0"
     inkscape:pageshadow="2"
     inkscape:window-width="1280"
     inkscape:window-height="736"
     id="namedview113"
     showgrid="false"
     inkscape:zoom="0.29344931"
     inkscape:cx="744.10612"
     inkscape:cy="216.34869"
     inkscape:window-x="0"
     inkscape:window-y="27"
     inkscape:window-maximized="1"
     inkscape:current-layer="fa973782-3a18-4630-a762-87130b613ac3" />
  <title
     id="title2">all the data</title>
  <g
     id="g4690"
     transform="translate(0,180.05066)">
    <rect
       style="fill:#f2f2f2"
       x="40"
       id="rect6"
       height="272"
       width="436"
       y="97.699341" />
    <rect
       style="fill:none;stroke:#3f3d56;stroke-width:2;stroke-miterlimit:10"
       id="rect8"
       stroke-miterlimit="10"
       height="272"
       width="436"
       y="71.199341"
       x="67.5" />
    <path
       style="fill:#3f3d56"
       inkscape:connector-curvature="0"
       id="path10"
       d="M 352.468,273.16735 A 94,94 0 0 0 286,112.69934 v 94 z" />
    <path
       style="fill:#908dc3"
       inkscape:connector-curvature="0"
       id="path12"
       d="M 286,112.69934 A 94.01123,94.01123 0 0 0 241.032,289.26348 L 286,206.69934 Z" />
    <path
       style="fill:#575a89"
       inkscape:connector-curvature="0"
       id="path14"
       d="M 352.468,273.16735 286,206.69934 241.032,289.26348 a 94.04908,94.04908 0 0 0 111.436,-16.09613 z" />
    <rect
       style="fill:#908dc3"
       id="rect16"
       height="18"
       width="18"
       y="286.69934"
       x="84" />
    <rect
       style="fill:#3f3d56"
       id="rect18"
       height="18"
       width="18"
       y="286.69934"
       x="110" />
    <rect
       style="fill:#575a89"
       id="rect20"
       height="18"
       width="18"
       y="286.69934"
       x="136" />
    <rect
       style="fill:#3f3d56"
       id="rect22"
       height="3"
       width="74"
       y="290.69934"
       x="395" />
    <rect
       style="fill:#3f3d56"
       id="rect24"
       height="3"
       width="74"
       y="299.69934"
       x="395" />
    <rect
       style="fill:#3f3d56"
       id="rect26"
       height="3"
       width="74"
       y="308.69934"
       x="395" />
  </g>
  <g
     id="g4677"
     transform="translate(418.84558,-199.19934)">
    <rect
       style="fill:#f2f2f2"
       id="rect28"
       height="272"
       width="248"
       y="476.69934"
       x="177" />
    <rect
       style="fill:none;stroke:#3f3d56;stroke-width:2;stroke-miterlimit:10"
       id="rect30"
       stroke-miterlimit="10"
       height="272"
       width="248"
       y="450.69934"
       x="202" />
    <rect
       style="fill:#908dc3"
       id="rect32"
       height="13.37143"
       width="13.37143"
       y="692.01361"
       x="215" />
    <rect
       style="fill:#3f3d56"
       id="rect34"
       height="13.37143"
       width="13.37143"
       y="692.01361"
       x="234.31429" />
    <rect
       style="fill:#575a89"
       id="rect36"
       height="13.37143"
       width="13.37143"
       y="692.01361"
       x="253.62857" />
    <rect
       style="fill:#3f3d56"
       id="rect38"
       height="2.10811"
       width="52"
       y="697.82098"
       x="365" />
    <rect
       style="fill:#3f3d56"
       id="rect40"
       height="2.10811"
       width="52"
       y="704.14526"
       x="365" />
    <rect
       style="fill:#3f3d56"
       id="rect42"
       height="2.10811"
       width="52"
       y="710.4696"
       x="365" />
    <path
       style="fill:#3f3d56"
       inkscape:connector-curvature="0"
       id="path44"
       d="m 326,498.69934 v 22 a 66,66 0 0 1 46.66907,112.66906 l 15.55633,15.55634 A 88,88 0 0 0 326,498.69934 Z" />
    <path
       style="fill:#575a89"
       inkscape:connector-curvature="0"
       id="path46"
       d="M 388.2254,648.92474 372.66907,633.3684 a 65.98344,65.98344 0 0 1 -86.6,5.87165 L 272.7533,656.7608 a 87.99775,87.99775 0 0 0 115.4721,-7.83606 z" />
    <path
       style="fill:#908dc3"
       inkscape:connector-curvature="0"
       id="path48"
       d="m 260,586.69934 a 66,66 0 0 1 66,-66 v -22 A 87.99914,87.99914 0 0 0 272.7533,656.7608 l 13.31579,-17.52075 A 65.885,65.885 0 0 1 260,586.69934 Z" />
  </g>
  <g
     id="g4664"
     transform="translate(10.191162,-8.5755468)">
    <ellipse
       style="fill:#3f3d56"
       id="ellipse4"
       ry="18.74165"
       rx="144.42094"
       cy="767.25836"
       cx="1419.579" />
    <path
       style="fill:#ffb9b9"
       inkscape:connector-curvature="0"
       id="path50"
       d="m 1375.6244,97.19267 c 0,0 -4.0803,30.31061 6.4119,33.808 10.4921,3.49739 7.5776,30.31062 7.5776,30.31062 l -31.4764,23.89875 -27.979,2.33159 -6.9947,-36.13958 4.0802,-9.32638 c 0,0 15.7382,-18.65268 4.6632,-37.88826 -11.0751,-19.235578 43.7172,-6.99474 43.7172,-6.99474 z" />
    <path
       style="opacity:0.1"
       inkscape:connector-curvature="0"
       id="path52"
       d="m 1375.6244,97.19267 c 0,0 -4.0803,30.31061 6.4119,33.808 10.4921,3.49739 7.5776,30.31062 7.5776,30.31062 l -31.4764,23.89875 -27.979,2.33159 -6.9947,-36.13958 4.0802,-9.32638 c 0,0 15.7382,-18.65268 4.6632,-37.88826 -11.0751,-19.235578 43.7172,-6.99474 43.7172,-6.99474 z" />
    <path
       style="fill:#575a89"
       inkscape:connector-curvature="0"
       id="path54"
       d="m 1346.4796,333.26567 -36.7225,86.2687 c 0,0 -28.5619,-16.3211 -45.4659,-14.57241 -16.904,1.74869 -37.8883,-18.65268 -37.8883,-18.65268 l 20.9843,-101.424 39.0541,-107.83584 54.2093,34.39089 z" />
    <path
       style="opacity:0.1"
       inkscape:connector-curvature="0"
       id="path56"
       d="m 1346.4796,333.26567 -36.7225,86.2687 c 0,0 -28.5619,-16.3211 -45.4659,-14.57241 -16.904,1.74869 -37.8883,-18.65268 -37.8883,-18.65268 l 20.9843,-101.424 39.0541,-107.83584 54.2093,34.39089 z" />
    <polygon
       transform="translate(444,-43.800658)"
       style="fill:#575a89"
       id="polygon58"
       points="938.036,739.045 960.186,743.708 960.186,771.687 933.956,771.687 " />
    <polygon
       transform="translate(444,-43.800658)"
       style="fill:#575a89"
       id="polygon60"
       points="1019.059,737.296 1005.069,717.478 1028.385,695.328 1047.621,706.986 1033.631,739.045 " />
    <path
       style="fill:#2f2e41"
       inkscape:connector-curvature="0"
       id="path62"
       d="m 1409.4324,325.10515 34.3909,81.02261 c 0,0 -12.2408,89.766 -11.6579,97.3437 0.5829,7.5777 1.1658,10.49214 -1.7487,16.904 -2.9145,6.41186 -4.0803,10.49213 -2.3316,18.06979 1.7487,7.57766 2.3316,10.49213 1.1658,13.40661 -1.1658,2.91448 -9.3263,122.99115 -13.4066,131.1517 -4.0803,8.16055 2.3316,21.56717 -1.7487,22.733 -4.0803,1.16583 -34.3909,-1.74869 -36.1396,-8.74344 -1.7487,-6.99475 5.829,-23.89876 1.7487,-29.14483 -4.0803,-5.24607 0.5829,-194.10451 -5.2461,-206.92823 -5.8289,-12.82372 -69.9475,-24.48165 -69.9475,-24.48165 0,0 -5.829,-37.30537 -2.3316,-43.13433 3.4974,-5.82896 8.1605,-42.55148 8.1605,-42.55148 z" />
    <path
       style="fill:#2f2e41"
       inkscape:connector-curvature="0"
       id="path64"
       d="m 1375.6244,723.22341 c 0,0 16.3211,-19.23558 30.3106,0 0,0 1.1658,22.733 11.075,27.39614 9.9093,4.66314 5.2461,23.31585 -8.7434,23.89875 -13.9895,0.5829 -32.0593,2.91448 -32.6422,-4.66317 -0.5829,-7.57765 2.3316,-12.24083 -2.9145,-14.57241 -5.246,-2.33158 0,-15.7382 0,-15.7382 z" />
    <path
       style="fill:#2f2e41"
       inkscape:connector-curvature="0"
       id="path66"
       d="m 1377.3731,444.59892 c 0,0 -0.5829,41.96854 -4.6632,47.79751 -4.0802,5.82897 -6.4118,9.32634 -4.0802,15.7382 2.3316,6.41186 5.829,18.06979 4.0802,20.40138 -1.7487,2.33159 1.7487,14.57241 1.7487,14.57241 0,0 44.883,21.56717 65.8673,66.45019 0,0 21.5672,35.55668 27.979,36.13958 6.4119,0.5829 13.9895,-4.08028 10.4922,9.32634 -3.4974,13.40662 -16.904,30.89351 -26.8133,29.14482 -9.9092,-1.74869 -17.4868,-18.65268 -17.4868,-18.65268 0,0 -77.5252,-78.691 -85.6858,-81.02261 -8.1605,-2.33161 -31.4764,-20.98427 -35.5567,-32.6422 -4.0802,-11.65793 -12.8237,-109.00163 -8.7434,-115.41349 4.0803,-6.41186 19.2356,-15.15531 19.2356,-15.15531 z" />
    <path
       style="fill:#2f2e41"
       inkscape:connector-curvature="0"
       id="path68"
       d="m 1478.2142,649.19557 c 0,0 36.1396,1.16579 36.7225,9.90924 0.5829,8.74345 -15.1553,60.62123 -12.8238,72.86205 2.3316,12.24082 -18.0697,40.21986 -31.4764,34.39089 -13.4066,-5.82897 -2.9144,-36.13958 -2.9144,-36.13958 0,0 -13.4067,-41.38564 -11.075,-41.96854 2.3316,-0.5829 25.6474,-7.57765 24.4816,-14.57241 -1.1658,-6.99476 -2.9145,-24.48165 -2.9145,-24.48165 z" />
    <circle
       style="fill:#ffb9b9"
       id="circle70"
       r="36.13958"
       cy="92.238037"
       cx="1348.5198" />
    <path
       style="fill:#908dc3"
       inkscape:connector-curvature="0"
       id="path72"
       d="m 1384.9508,147.90467 c 0,0 -19.8185,20.98427 -34.3909,17.48689 -14.5724,-3.49738 -22.1501,-28.56192 -22.1501,-28.56192 l -26.2303,-4.66318 c 0,0 -18.6527,82.7713 -18.6527,90.93185 0,8.16055 18.6527,96.17791 18.6527,111.91611 0,15.7382 -15.1553,25.06455 8.1605,24.48165 23.3159,-0.5829 12.2409,-8.16055 46.0488,-8.74344 33.8081,-0.58289 39.0541,6.99475 46.0489,-5.24607 a 97.52308,97.52308 0 0 1 17.4869,-21.56717 l -12.2409,-43.13434 -1.7487,-121.82538 c 0,0 -14.9443,-29.14482 -21.7531,-26.81324 0,0 3.6834,12.82373 0.7689,15.73824 z" />
    <path
       style="fill:#575a89"
       inkscape:connector-curvature="0"
       id="path74"
       d="m 1377.7711,127.01102 c 0,0 31.0784,3.40672 39.8219,9.81859 8.7434,6.41187 33.2251,11.075 32.6422,15.7382 -0.5829,4.6632 -28.562,71.11336 -28.562,71.11336 0,0 -12.8237,52.46068 -1.7486,64.70151 11.075,12.24083 52.4606,145.72411 45.4659,156.79914 -6.9948,11.07503 -29.1448,-33.808 -29.1448,-33.808 0,0 -29.7278,-96.17791 -46.0489,-112.499 -16.3211,-16.32109 -17.4868,-104.33847 -17.4868,-108.41874 0,-4.08027 5.0611,-63.44506 5.0611,-63.44506 z" />
    <path
       style="fill:#575a89"
       inkscape:connector-curvature="0"
       id="path76"
       d="m 1332.3128,133.7718 c 0,0 -38.2939,-14.42913 -51.7005,-8.60013 -13.4066,5.829 -21.5672,6.99475 -21.5672,6.99475 l -4.6631,57.12386 c 0,0 -1.7487,82.1884 -16.904,102.00688 -15.1553,19.81848 -25.0645,102.58977 -22.733,110.75032 2.3315,8.16055 -4.0803,22.15007 5.829,18.65269 9.9093,-3.49738 37.3054,-83.93709 37.3054,-83.93709 0,0 0,-46.04882 16.3211,-58.87254 16.3211,-12.82372 43.1343,-65.86729 44.3001,-78.691 1.1658,-12.82371 12.2408,-48.3804 12.2408,-48.3804 z" />
    <path
       style="fill:#ffb9b9"
       inkscape:connector-curvature="0"
       id="path78"
       d="m 1463.6418,317.5275 c 0,0 -17.4869,32.64217 -19.8185,38.47117 -2.3316,5.829 -18.6527,45.46593 -41.9685,36.72248 -23.3159,-8.74345 22.733,-51.29489 22.733,-51.29489 l 10.4921,-35.55668 c 0,0 27.3961,-5.82897 28.5619,11.65792 z" />
    <path
       style="fill:#575a89"
       inkscape:connector-curvature="0"
       id="path80"
       d="m 1264.8741,132.16643 h -5.829 c 0,0 -5.829,-4.66317 -12.8237,-1.74869 -6.9947,2.91448 -23.3159,-1.16579 -23.3159,0.5829 0,1.74869 -18.0698,-5.24607 -25.6474,-1.74869 -7.5777,3.49738 -34.9738,4.66317 -34.9738,4.66317 0,0 -11.075,27.979 -3.4974,33.2251 7.5777,5.2461 18.6527,1.16579 23.8988,5.24607 5.246,4.08028 15.1553,-0.5829 18.6527,4.66317 3.4973,5.24607 16.3211,14.57241 19.2355,8.74345 2.9145,-5.82896 -2.9144,-11.075 9.3264,-4.66318 12.2408,6.41182 31.4764,6.41187 31.4764,6.41187 z" />
    <path
       style="fill:#2f2e41"
       inkscape:connector-curvature="0"
       id="path82"
       d="m 1351.7777,65.536481 c -4.8905,-1.13 -9.9671,0.1222 -14.9204,0.93394 -4.9532,0.81174 -10.4118,1.07935 -14.6017,-1.6843 -3.0943,-2.041 -4.9968,-5.41753 -6.7832,-8.665438 a 9.97336,9.97336 0 0 1 -1.4591,-3.82348 c -0.2103,-2.40206 1.3177,-4.59363 2.9403,-6.37723 7.537,-8.28481 18.5511,-12.81929 29.6583,-14.25967 9.1304,-1.184 18.6496,-0.3911 27.0812,3.307 8.4316,3.6981 15.6796,10.47034 18.9945,19.05978 a 54.12707,54.12707 0 0 1 2.8369,13.610888 40.65711,40.65711 0 0 1 0.1912,10.30794 44.18819,44.18819 0 0 1 -1.9976,7.46792 l -5.4912,16.580839 a 10.92419,10.92419 0 0 1 -2.1592,4.27407 3.73555,3.73555 0 0 1 -4.3744,0.95837 13.61344,13.61344 0 0 0 0.1969,-5.50046 4.64127,4.64127 0 0 0 -3.6622,-3.69318 c -2.024,-0.21479 -3.753,1.35417 -5.673,2.02989 a 6.979,6.979 0 0 1 -8.8109,-5.24475 c -0.3031,-1.89562 0.2058,-3.92494 -0.5127,-5.7051 -0.8419,-2.08568 -3.0742,-3.178519 -4.7513,-4.677229 a 10.93629,10.93629 0 0 1 -3.0008,-11.3656 c 0.449,-1.37991 1.717,-2.00722 1.4633,-3.59244 -0.3328,-2.07969 -3.399,-3.5337 -5.1649,-3.94176 z" />
    <rect
       style="fill:#f2f2f2"
       id="rect84"
       height="272"
       width="248"
       y="192.69934"
       x="951" />
    <rect
       style="fill:none;stroke:#3f3d56;stroke-width:2;stroke-miterlimit:10"
       id="rect86"
       stroke-miterlimit="10"
       height="272"
       width="248"
       y="166.69934"
       x="976" />
    <polyline
       transform="translate(444,-43.800658)"
       style="fill:none;stroke:#3f3d56;stroke-width:2;stroke-miterlimit:10"
       id="polyline88"
       stroke-miterlimit="10"
       points="556 227.5 556 435.5 757 435.5" />
    <rect
       style="fill:#575a89"
       id="rect90"
       height="72"
       width="45"
       y="318.69934"
       x="1011" />
    <rect
       style="fill:#3f3d56"
       id="rect92"
       height="121"
       width="45"
       y="269.69934"
       x="1076" />
    <rect
       style="fill:#908dc3"
       id="rect94"
       height="178"
       width="45"
       y="212.69934"
       x="1141" />
    <rect
       style="fill:#908dc3"
       id="rect96"
       height="13.37143"
       width="13.37143"
       y="408.01364"
       x="997" />
    <rect
       style="fill:#3f3d56"
       id="rect98"
       height="13.37143"
       width="13.37143"
       y="408.01364"
       x="1016.3143" />
    <rect
       style="fill:#575a89"
       id="rect100"
       height="13.37143"
       width="13.37143"
       y="408.01364"
       x="1035.6284" />
    <rect
       style="fill:#3f3d56"
       id="rect102"
       height="2.10811"
       width="52"
       y="413.82095"
       x="1147" />
    <rect
       style="fill:#3f3d56"
       id="rect104"
       height="2.10811"
       width="52"
       y="420.14529"
       x="1147" />
    <rect
       style="fill:#3f3d56"
       id="rect106"
       height="2.10811"
       width="52"
       y="426.4696"
       x="1147" />
    <path
       style="fill:#ffb9b9"
       inkscape:connector-curvature="0"
       id="path108"
       d="m 1168.3076,133.88159 c 10.6285,0.46211 18.5257,10.10069 17.376,20.67691 -1.0416,9.58175 -4.884,21.50465 -16.9875,26.08434 -21.5671,8.16055 -20.4013,-37.88827 -16.3211,-39.637 2.7203,-1.16575 6.9949,-7.51284 15.9326,-7.12425 z" />
    <path
       style="fill:#575a89"
       inkscape:connector-curvature="0"
       id="path110"
       d="m 1443.8233,149.45367 6.4119,3.11414 c 0,0 13.9895,28.56192 14.5724,32.6422 0.5829,4.08028 9.9092,19.23558 6.4118,23.31586 -3.4973,4.08028 -8.7434,14.57241 -5.246,18.65268 3.4973,4.08027 11.6579,20.40138 11.6579,26.23034 0,5.82896 -8.7434,21.56717 -2.9145,23.31586 5.829,1.74869 4.0803,24.48165 2.9145,26.23034 -1.1658,1.74869 -16.3211,30.31061 -16.3211,30.31061 0,0 -2.9145,-32.6422 -31.4764,-19.23558 0,0 -2.3316,-16.3211 0,-17.48689 2.3316,-1.16579 8.1606,-8.16055 3.4974,-9.32635 -4.6632,-1.1658 -11.075,-15.1553 -9.9093,-16.904 1.1658,-1.7487 4.0803,-4.08028 1.1658,-5.829 -2.9145,-1.74872 -5.246,-11.65792 -4.6631,-13.40661 0.5829,-1.74869 -6.4119,-9.90924 -6.4119,-9.90924 z" />
  </g>
</svg>
