<?xml version="1.0" encoding="UTF-8" standalone="no"?>
<svg
   xmlns:dc="http://purl.org/dc/elements/1.1/"
   xmlns:cc="http://creativecommons.org/ns#"
   xmlns:rdf="http://www.w3.org/1999/02/22-rdf-syntax-ns#"
   xmlns:svg="http://www.w3.org/2000/svg"
   xmlns="http://www.w3.org/2000/svg"
   xmlns:sodipodi="http://sodipodi.sourceforge.net/DTD/sodipodi-0.dtd"
   xmlns:inkscape="http://www.inkscape.org/namespaces/inkscape"
   id="ee68b97f-fc10-400d-a2ff-be2b67d80654"
   data-name="Layer 1"
   width="800"
   height="800"
   viewBox="0 0 800.00001 799.99997"
   version="1.1"
   sodipodi:docname="img_3_2.svg"
   inkscape:version="0.92.1 r15371">
  <metadata
     id="metadata63">
    <rdf:RDF>
      <cc:Work
         rdf:about="">
        <dc:format>image/svg+xml</dc:format>
        <dc:type
           rdf:resource="http://purl.org/dc/dcmitype/StillImage" />
        <dc:title>road sign</dc:title>
      </cc:Work>
    </rdf:RDF>
  </metadata>
  <defs
     id="defs61" />
  <sodipodi:namedview
     pagecolor="#ffffff"
     bordercolor="#666666"
     borderopacity="1"
     objecttolerance="10"
     gridtolerance="10"
     guidetolerance="10"
     inkscape:pageopacity="0"
     inkscape:pageshadow="2"
     inkscape:window-width="1280"
     inkscape:window-height="736"
     id="namedview59"
     showgrid="false"
     inkscape:zoom="0.33528954"
     inkscape:cx="69.96595"
     inkscape:cy="191.29802"
     inkscape:window-x="0"
     inkscape:window-y="27"
     inkscape:window-maximized="1"
     inkscape:current-layer="ee68b97f-fc10-400d-a2ff-be2b67d80654" />
  <title
     id="title2">road sign</title>
  <circle
     cx="418.55768"
     cy="212.56937"
     r="50.682083"
     id="circle4"
     style="fill:#ff6584;stroke-width:0.79190755" />
  <path
     d="m 265.95404,456.4877 c 0,97.88769 -58.1927,132.06642 -129.97702,132.06642 C 64.192699,588.55412 6,554.37539 6,456.4877 6,358.60002 135.97702,234.07138 135.97702,234.07138 c 0,0 129.97702,124.52861 129.97702,222.41632 z"
     id="path6"
     inkscape:connector-curvature="0"
     style="fill:#f2f2f2;stroke-width:0.79190755" />
  <polygon
     points="214.04,219.952 162.625,280.514 163.474,127.11 158.138,330.188 158.576,321.811 106.085,241.464 157.735,337.893 152.844,431.327 152.698,428.847 92.185,344.294 152.515,437.608 151.903,449.293 151.794,449.469 151.844,450.428 139.435,687.478 156.014,687.478 158.003,565.037 218.185,471.952 158.153,555.833 159.833,452.383 229.79,324.4 160.097,436.154 160.852,389.639 209.067,297.044 161.052,377.329 162.412,293.669 "
     id="polygon8"
     style="fill:#3f3d56"
     transform="matrix(0.79190753,0,0,0.79190753,6,133.41193)" />
  <path
     d="m 651.1252,405.13261 c 0,119.58707 -71.09261,161.34245 -158.7898,161.34245 -87.69718,0 -158.7898,-41.75538 -158.7898,-161.34245 0,-119.58707 158.7898,-271.72071 158.7898,-271.72071 0,0 158.7898,152.13365 158.7898,271.72071 z"
     id="path10"
     inkscape:connector-curvature="0"
     style="fill:#f2f2f2;stroke-width:0.79190755" />
  <polygon
     points="675.104,113.423 612.291,187.409 613.329,0 606.809,248.096 607.345,237.861 543.218,139.704 606.317,257.508 600.341,371.654 600.164,368.625 526.236,265.329 599.94,379.328 599.192,393.603 599.059,393.818 599.12,394.99 583.96,684.589 604.214,684.589 606.645,535.005 680.167,421.285 606.827,523.761 608.88,397.378 694.345,241.024 609.202,377.552 610.126,320.725 669.028,207.605 610.37,305.687 612.03,203.481 "
     id="polygon12"
     style="fill:#3f3d56"
     transform="matrix(0.79190753,0,0,0.79190753,6,133.41193)" />
  <ellipse
     cx="322.73685"
     cy="675.83527"
     rx="243.90752"
     ry="8.7109823"
     id="ellipse14"
     style="fill:#3f3d56;stroke-width:0.79190755" />
  <ellipse
     cx="665.63281"
     cy="735.62427"
     rx="112.45087"
     ry="10.690752"
     id="ellipse16"
     style="fill:#3f3d56;stroke-width:0.79190755" />
  <rect
     x="308.48251"
     y="408.17053"
     width="28.508671"
     height="267.66473"
     id="rect18"
     style="fill:#2f2e41;stroke-width:0.79190755" />
  <polygon
     points="628.967,392.958 564.967,423.958 343.967,423.958 343.967,361.958 564.967,361.958 "
     id="polygon20"
     style="fill:#3f3d56"
     transform="matrix(0.79190753,0,0,0.79190753,6,133.41193)" />
  <polygon
     points="564.967,423.958 628.967,392.958 623.806,390.458 564.967,418.958 343.967,418.958 343.967,423.958 "
     id="polygon22"
     style="opacity:0.1"
     transform="matrix(0.79190753,0,0,0.79190753,6,133.41193)" />
  <polygon
     points="171.967,474.958 235.967,505.958 456.967,505.958 456.967,443.958 235.967,443.958 "
     id="polygon24"
     style="fill:#3f3d56"
     transform="matrix(0.79190753,0,0,0.79190753,6,133.41193)" />
  <polygon
     points="456.967,505.958 456.967,500.958 235.967,500.958 177.128,472.458 171.967,474.958 235.967,505.958 "
     id="polygon26"
     style="opacity:0.1"
     transform="matrix(0.79190753,0,0,0.79190753,6,133.41193)" />
  <rect
     x="376.58658"
     y="429.55203"
     width="30.092485"
     height="30.092485"
     id="rect28"
     style="fill:#908dc3;stroke-width:0.79190755" />
  <circle
     cx="255.42473"
     cy="509.5347"
     r="15.046243"
     id="circle30"
     style="fill:#908dc3;stroke-width:0.79190755" />
  <circle
     cx="322.73685"
     cy="443.01447"
     r="8.7109823"
     id="circle32"
     style="fill:#2f2e41;stroke-width:0.79190755" />
  <circle
     cx="322.73685"
     cy="507.95087"
     r="8.7109823"
     id="circle34"
     style="fill:#2f2e41;stroke-width:0.79190755" />
  <path
     d="m 264.1357,646.00895 c 0,17.79303 -10.57705,24.00569 -23.62566,24.00569 q -0.45342,0 -0.9054,-0.0101 c -0.60458,-0.013 -1.2034,-0.0417 -1.79501,-0.082 -11.77611,-0.83343 -20.92526,-7.36565 -20.92526,-23.91355 0,-17.12511 21.88394,-38.73412 23.52778,-40.33335 l 0.003,-0.003 c 0.0633,-0.0619 0.095,-0.0921 0.095,-0.0921 0,0 23.62564,22.63532 23.62564,40.42834 z"
     id="path36"
     inkscape:connector-curvature="0"
     style="fill:#908dc3;stroke-width:0.79190755" />
  <path
     d="m 239.64925,667.29263 8.64099,-12.07408 -8.66258,13.39982 -0.023,1.38619 c -0.60458,-0.013 -1.2034,-0.0417 -1.79501,-0.082 l 0.93134,-17.80165 -0.007,-0.13819 0.0158,-0.0259 0.0878,-1.68127 -8.68422,-13.43292 8.71156,12.17196 0.0202,0.35698 0.70387,-13.4502 -7.43474,-13.88061 7.52543,11.51988 0.73267,-27.885 0.003,-0.095 v 0.0921 l -0.12235,21.98902 7.40165,-8.71732 -7.43188,10.6117 -0.19576,12.04242 6.9108,-11.55733 -6.93958,13.3293 -0.1094,6.69486 10.03295,-16.08583 -10.07037,18.42206 z"
     id="path38"
     inkscape:connector-curvature="0"
     style="fill:#3f3d56;stroke-width:0.79190755" />
  <path
     d="m 629.23681,716.15448 c 0,0 -11.21266,9.44223 -17.11406,8.8521 -5.9014,-0.59014 -17.11407,-0.59014 -12.39295,5.90139 4.72112,6.49154 24.19575,10.03239 32.45772,10.62253 8.26196,0.59015 26.5563,1.18028 25.37602,-2.36056 -1.18027,-3.54084 -2.36053,-20.06482 -7.08168,-21.24508 -4.72114,-1.18026 -21.24505,-1.77038 -21.24505,-1.77038 z"
     id="path40"
     inkscape:connector-curvature="0"
     style="fill:#575a89;stroke-width:0.79190755" />
  <path
     d="m 693.59152,706.88395 c 0,0 -8.26246,12.10832 -14.10535,13.12593 -5.84288,1.01762 -16.643,4.0311 -10.35093,9.01497 6.29207,4.98387 26.00181,3.1605 34.1184,1.50847 8.1166,-1.65203 25.89643,-6.00034 23.80801,-9.09369 -2.0885,-3.09336 -7.6663,-18.69213 -12.53091,-18.56015 -4.86461,0.13198 -20.93922,4.00447 -20.93922,4.00447 z"
     id="path42"
     inkscape:connector-curvature="0"
     style="fill:#575a89;stroke-width:0.79190755" />
  <path
     d="m 622.6686,533.71783 c 0,0 -7.59519,52.01565 -5.82474,61.45787 1.77046,9.44223 2.95071,24.19575 2.95071,24.19575 0,0 -1.18028,12.39294 0,18.29435 1.18027,5.9014 8.26197,61.96472 8.26197,63.145 0,1.18028 -1.18028,4.72111 0,7.67182 1.18028,2.9507 3.54084,0.59013 0,5.31126 -3.54084,4.72112 -1.18028,5.9014 -0.59014,5.9014 0.59015,0 23.60561,2.36056 24.78591,0 1.18031,-2.36055 -0.59014,-2.9507 0,-5.9014 0.59015,-2.9507 1.18028,-3.54084 2.36056,-4.13098 1.18029,-0.59014 3.54084,0.59014 1.77042,-2.36057 -1.77042,-2.9507 -5.9014,-6.49153 -4.72112,-8.26197 1.18027,-1.77043 -0.59014,-14.75349 -0.59014,-14.75349 0,0 -1.18028,-28.91688 -1.77042,-46.62108 -0.59014,-17.7042 5.31126,-35.99853 5.31126,-35.99853 a 67.52091,67.52091 0 0 0 15.34365,39.53939 c 15.34364,18.29435 23.01547,52.52248 23.01547,52.52248 0,0 3.54084,5.31126 1.77042,10.03238 -1.77042,4.72112 -7.08168,1.77042 -1.77042,4.72112 5.31126,2.95071 23.6056,-1.18028 25.37598,-2.9507 1.77047,-1.77042 -2.36051,-4.13098 -1.18026,-8.8521 1.18026,-4.72112 5.90146,-3.54084 1.77047,-5.9014 -4.13098,-2.36056 -5.31132,-1.77043 -5.31132,-4.13098 0,-2.36056 -10.62249,-53.70276 -27.14642,-68.45627 l -1.18028,-53.70275 c 0,0 14.75351,-37.76897 -0.59014,-41.30981 -15.34364,-3.54084 -62.04142,10.53921 -62.04142,10.53921 z"
     id="path44"
     inkscape:connector-curvature="0"
     style="fill:#2f2e41;stroke-width:0.79190755" />
  <path
     d="m 633.36779,393.9379 c 0,0 10.03238,24.78591 7.67183,28.32673 -2.36056,3.54082 28.91686,-11.8028 28.91686,-11.8028 0,0 -10.03238,-24.78592 -10.03238,-27.73657 0,-2.95064 -26.55631,11.21264 -26.55631,11.21264 z"
     id="path46"
     inkscape:connector-curvature="0"
     style="fill:#a0616a;stroke-width:0.79190755" />
  <circle
     cx="640.74457"
     cy="378.29919"
     r="21.835188"
     id="circle48"
     style="fill:#a0616a;stroke-width:0.79190755" />
  <path
     d="m 669.95648,400.42944 c 0,0 -15.34364,-1.77042 -23.01547,7.67182 -7.67182,9.44224 -8.8521,11.8028 -8.8521,11.8028 0,0 -18.29434,29.50702 -14.7535,44.26051 a 42.688955,42.688955 0 0 1 2.36056,4.13097 c 1.18028,2.36057 1.18028,35.40842 0,40.71968 -1.18027,5.31126 -2.36056,7.08168 -1.18028,14.7535 1.18028,7.67182 -9.44225,20.06477 2.9507,22.42533 12.39295,2.36055 21.83519,0.59014 25.96617,-4.72112 4.13098,-5.31126 0.59014,-8.85211 13.57322,-8.85211 12.98308,0 21.24505,-8.8521 21.24505,-8.8521 0,0 -6.49154,-7.08168 -4.13098,-8.26197 2.36057,-1.18029 0,-4.13098 -1.18028,-7.08168 -1.18028,-2.9507 -1.18028,-5.31126 0.59014,-5.31126 1.77042,0 0.59014,-1.18028 -0.59014,-4.13099 -1.18028,-2.9507 20.65491,-53.70275 7.67182,-68.45625 -12.98309,-14.7535 -19.47459,-23.01547 -19.47459,-23.01547 0,0 2.36052,-8.85208 -1.18032,-7.08166 z"
     id="path50"
     inkscape:connector-curvature="0"
     style="fill:#908dc3;stroke-width:0.79190755" />
  <path
     d="m 636.31849,456.49275 v 25.96617 l -18.88448,62.55484 c 0,0 -12.39295,32.4577 0,32.4577 12.39295,0 11.72894,-30.9796 11.72894,-30.9796 l 26.63015,-46.91894 c 0,0 10.62252,-37.17883 9.44224,-40.12953 -1.18029,-2.9507 -28.91685,-2.95064 -28.91685,-2.95064 z"
     id="path52"
     inkscape:connector-curvature="0"
     style="fill:#a0616a;stroke-width:0.79190755" />
  <path
     d="m 646.35088,418.13364 c 0,0 -17.7042,7.08168 -12.98309,25.96618 4.72112,18.88449 0,18.29434 0,18.29434 0,0 24.19575,-2.36056 31.86757,2.9507 l 1.77042,-7.08168 c 0,0 7.08169,-40.71967 -20.6549,-40.12954 z"
     id="path54"
     inkscape:connector-curvature="0"
     style="fill:#908dc3;stroke-width:0.79190755" />
  <path
     d="m 633.28862,361.90702 a 8.7120677,8.7120677 0 0 1 -8.18353,-1.27347 c -2.22447,-1.83279 -3.16802,-5.21448 -1.8595,-7.78258 1.12996,-2.21763 3.54689,-3.43425 5.86453,-4.34158 a 54.50694,54.50694 0 0 1 15.97341,-3.60678 c 2.6106,-0.18567 5.35237,-0.15625 7.68205,1.03632 1.15273,0.59008 2.15392,1.44171 3.29556,2.05296 2.09919,1.12393 4.54195,1.37382 6.81054,2.09721 a 17.046704,17.046704 0 0 1 10.41771,9.57609 20.541091,20.541091 0 0 1 1.28322,4.75362 26.477658,26.477658 0 0 1 -1.37706,13.25474 c -2.51559,6.6978 -7.79167,12.55332 -8.08944,19.70177 -3.22933,-2.34289 -4.42681,-6.57167 -7.01466,-9.60822 a 13.069072,13.069072 0 0 0 -7.45905,-4.32651 4.1544577,4.1544577 0 0 1 -2.22339,-0.8107 3.5795646,3.5795646 0 0 1 -0.81199,-1.89435 l -2.20964,-10.4327 c -0.44969,-2.1232 -1.01797,-4.43805 -2.76309,-5.72829 a 8.3609597,8.3609597 0 0 0 -3.60137,-1.26876 56.494121,56.494121 0 0 0 -9.22581,-0.84119"
     id="path56"
     inkscape:connector-curvature="0"
     style="fill:#2f2e41;stroke-width:0.79190755" />
</svg>
